<svg width="34" height="34" viewBox="0 0 34 34" fill="none" xmlns="http://www.w3.org/2000/svg">
<path fill-rule="evenodd" clip-rule="evenodd" d="M25.4 14.4666V8.91998C25.4 4.32595 21.674 0.599976 17.08 0.599976C12.4859 0.599976 8.75998 4.32595 8.75998 8.91998V14.4666H4.59998V33.88H29.56V14.4666H25.4ZM18.4667 25.176V28.3334H15.6934V25.176C14.8683 24.6948 14.3067 23.8115 14.3067 22.7867C14.3067 21.2559 15.5491 20.0134 17.08 20.0134C18.6109 20.0134 19.8534 21.2559 19.8534 22.7867C19.8534 23.8101 19.2931 24.6948 18.4667 25.176ZM11.5333 8.92008V14.4667H22.6266V8.92008C22.6266 5.86109 20.1375 3.37341 17.0799 3.37341C14.021 3.37341 11.5333 5.86109 11.5333 8.92008Z" fill="#1A1A1A"/>
</svg>
